<?xml version="1.0" standalone="no"?>
<!DOCTYPE svg PUBLIC "-//W3C//DTD SVG 1.1//EN" "http://www.w3.org/Graphics/SVG/1.1/DTD/svg11.dtd">
<svg version="1.1" xmlns="http://www.w3.org/2000/svg" viewBox="0 0 208 113" width="208" height="113"><!-- svg-source:excalidraw --><metadata></metadata><defs><style class="style-fonts">
      </style></defs><g stroke-linecap="round" transform="translate(10 53) rotate(0 94 25)"><path d="M85.33 0.28 C98.07 -0.24, 113.94 0.45, 126.51 1.82 C139.07 3.19, 151.26 5.88, 160.73 8.49 C170.2 11.1, 178.92 14.32, 183.32 17.48 C187.72 20.64, 188.97 24.03, 187.15 27.46 C185.33 30.89, 179.66 35.06, 172.38 38.05 C165.1 41.04, 154.95 43.46, 143.48 45.41 C132.02 47.37, 117.14 49.2, 103.57 49.77 C89.99 50.34, 74.98 49.94, 62.05 48.82 C49.12 47.7, 35.45 45.73, 26 43.04 C16.55 40.36, 9.62 36.42, 5.37 32.72 C1.11 29.02, -1.3 24.32, 0.49 20.84 C2.28 17.37, 8.51 14.61, 16.12 11.87 C23.72 9.14, 33.78 6.42, 46.13 4.42 C58.48 2.42, 82.13 0.5, 90.22 -0.13 C98.32 -0.76, 94.48 0.23, 94.7 0.64 M82.63 -0.22 C95.45 -1.02, 111.51 -0.55, 124.07 0.44 C136.64 1.43, 148.33 3.08, 158.03 5.71 C167.73 8.34, 177.16 12.48, 182.29 16.23 C187.42 19.98, 189.97 24.57, 188.8 28.23 C187.63 31.89, 182.22 35.46, 175.26 38.2 C168.3 40.94, 158.52 42.72, 147.02 44.67 C135.52 46.62, 120.01 49.09, 106.26 49.9 C92.51 50.71, 77.58 50.68, 64.51 49.53 C51.45 48.39, 37.62 45.46, 27.87 43.04 C18.11 40.62, 10.56 38.65, 5.97 35.01 C1.38 31.37, -1.02 24.79, 0.34 21.22 C1.7 17.66, 7.25 16.29, 14.14 13.61 C21.02 10.92, 30.25 7.28, 41.64 5.11 C53.02 2.95, 75.74 1.57, 82.45 0.62 C89.16 -0.34, 81.79 -1.12, 81.89 -0.62" stroke="none" stroke-width="0" fill="#ffec99"></path><path d="M85.16 0.5 C98.1 -0.45, 113.79 -0.25, 126.28 0.9 C138.77 2.05, 150.54 4.7, 160.11 7.37 C169.69 10.05, 179.34 13.62, 183.73 16.96 C188.13 20.3, 188.15 23.79, 186.49 27.42 C184.83 31.05, 180.84 35.52, 173.76 38.72 C166.68 41.91, 155.79 44.7, 144.01 46.59 C132.23 48.49, 116.76 49.69, 103.07 50.09 C89.38 50.48, 74.43 50.15, 61.89 48.98 C49.35 47.81, 37.16 45.69, 27.83 43.05 C18.49 40.41, 10.49 36.65, 5.91 33.16 C1.32 29.67, -1.1 25.74, 0.32 22.13 C1.74 18.52, 6.9 14.49, 14.42 11.51 C21.94 8.52, 32.57 6.28, 45.44 4.24 C58.31 2.2, 82.63 -0.04, 91.65 -0.73 C100.67 -1.42, 99.55 -0.37, 99.55 0.1 M60.45 0.79 C71.85 -0.69, 86.08 0.63, 99.36 0.93 C112.65 1.23, 128.18 1.08, 140.17 2.58 C152.17 4.07, 163.76 6.89, 171.34 9.91 C178.91 12.93, 183.68 17.2, 185.61 20.7 C187.55 24.2, 186.59 27.29, 182.96 30.89 C179.33 34.5, 173.04 39.23, 163.84 42.34 C154.64 45.45, 140.7 48.21, 127.76 49.54 C114.82 50.87, 99.51 50.68, 86.21 50.32 C72.91 49.97, 59.64 49.51, 47.95 47.43 C36.27 45.36, 24.05 40.92, 16.1 37.88 C8.15 34.83, 2.11 32.26, 0.24 29.15 C-1.62 26.04, 0.84 22.5, 4.91 19.22 C8.98 15.94, 15.84 12.24, 24.67 9.45 C33.5 6.66, 52.06 3.67, 57.89 2.48 C63.72 1.3, 58.63 1.86, 59.65 2.35" stroke="#1e1e1e" stroke-width="2" fill="none"></path></g><g stroke-linecap="round"><g transform="translate(46.12782131938809 58.299731159831936) rotate(0 59.37217868061191 -23.79972733108235)" fill-rule="evenodd"><path d="M0 0 L-1.13 -0.3 L-0.2 -6.89 L3.61 -18.19 L12.6 -32.51 L19.61 -39.2 L30.91 -44.76 L44.88 -48.08 L72.09 -48.3 L88.98 -45.38 L104.6 -35.62 L113.29 -24.02 L117.65 -11.94 L119.87 0.7 L93.09 -3.48 L61.15 -5.28 L35.13 -4.56 L5.31 -1.03 L0 0" stroke="none" stroke-width="0" fill="#ffec99" fill-rule="evenodd"></path><path d="M0 0 C-0.29 -0.08, -0.58 -0.15, -1.13 -0.3 M0 0 C-0.3 -0.08, -0.59 -0.16, -1.13 -0.3 M-1.13 -0.3 C-0.83 -2.4, -0.54 -4.5, -0.2 -6.89 M-1.13 -0.3 C-0.9 -1.96, -0.66 -3.61, -0.2 -6.89 M-0.2 -6.89 C1.1 -10.74, 2.4 -14.6, 3.61 -18.19 M-0.2 -6.89 C1.01 -10.5, 2.23 -14.11, 3.61 -18.19 M3.61 -18.19 C6.81 -23.29, 10.02 -28.4, 12.6 -32.51 M3.61 -18.19 C6.75 -23.2, 9.9 -28.21, 12.6 -32.51 M12.6 -32.51 C14.44 -34.27, 16.28 -36.03, 19.61 -39.2 M12.6 -32.51 C14.12 -33.96, 15.63 -35.41, 19.61 -39.2 M19.61 -39.2 C21.99 -40.37, 24.37 -41.54, 30.91 -44.76 M19.61 -39.2 C24.09 -41.41, 28.57 -43.61, 30.91 -44.76 M30.91 -44.76 C36.37 -46.06, 41.84 -47.36, 44.88 -48.08 M30.91 -44.76 C36.28 -46.03, 41.65 -47.31, 44.88 -48.08 M44.88 -48.08 C50.95 -48.13, 57.03 -48.18, 72.09 -48.3 M44.88 -48.08 C53.09 -48.15, 61.3 -48.21, 72.09 -48.3 M72.09 -48.3 C77.85 -47.31, 83.61 -46.31, 88.98 -45.38 M72.09 -48.3 C77.35 -47.39, 82.62 -46.48, 88.98 -45.38 M88.98 -45.38 C94.93 -41.66, 100.88 -37.94, 104.6 -35.62 M88.98 -45.38 C92.58 -43.13, 96.19 -40.88, 104.6 -35.62 M104.6 -35.62 C107.81 -31.33, 111.03 -27.04, 113.29 -24.02 M104.6 -35.62 C107.57 -31.65, 110.54 -27.69, 113.29 -24.02 M113.29 -24.02 C114.66 -20.24, 116.02 -16.47, 117.65 -11.94 M113.29 -24.02 C114.19 -21.54, 115.08 -19.05, 117.65 -11.94 M117.65 -11.94 C118.49 -7.15, 119.34 -2.36, 119.87 0.7 M117.65 -11.94 C118.26 -8.47, 118.87 -5, 119.87 0.7 M119.87 0.7 C112.05 -0.52, 104.23 -1.74, 93.09 -3.48 M119.87 0.7 C111.72 -0.57, 103.56 -1.85, 93.09 -3.48 M93.09 -3.48 C83.06 -4.05, 73.03 -4.61, 61.15 -5.28 M93.09 -3.48 C81.37 -4.14, 69.65 -4.8, 61.15 -5.28 M61.15 -5.28 C55.01 -5.11, 48.87 -4.94, 35.13 -4.56 M61.15 -5.28 C54.33 -5.09, 47.51 -4.9, 35.13 -4.56 M35.13 -4.56 C24.29 -3.27, 13.44 -1.99, 5.31 -1.03 M35.13 -4.56 C25.25 -3.39, 15.38 -2.22, 5.31 -1.03 M5.31 -1.03 C3.69 -0.71, 2.06 -0.4, 0 0 M5.31 -1.03 C3.88 -0.75, 2.45 -0.47, 0 0 M0 0 C0 0, 0 0, 0 0 M0 0 C0 0, 0 0, 0 0" stroke="transparent" stroke-width="1" fill="none"></path></g></g><mask></mask><g stroke-linecap="round"><g transform="translate(198 78) rotate(0 -94 1.4210854715202004e-14)" fill-rule="evenodd"><path d="M0 0 L-0.91 3.48 L-5.67 8.55 L-14.28 13.25 L-26.38 17.37 L-52.79 22.47 L-90.72 24.98 L-129.21 23.18 L-161.62 17.37 L-179.87 10.17 L-185.95 5.2 L-188 0 L-187.09 -3.48 L-182.33 -8.55 L-173.72 -13.25 L-161.62 -17.37 L-129.21 -23.18 L-97.28 -24.98 L-64.95 -23.78 L-32 -19 L-11 -11.74 L-3.64 -6.89 L-0.23 -1.74 L0 0" stroke="none" stroke-width="0" fill="#ffec99" fill-rule="evenodd"></path><path d="M0 0 C-0.34 1.31, -0.69 2.62, -0.91 3.48 M0 0 C-0.21 0.81, -0.43 1.62, -0.91 3.48 M-0.91 3.48 C-2.19 4.84, -3.46 6.19, -5.67 8.55 M-0.91 3.48 C-2.22 4.87, -3.53 6.27, -5.67 8.55 M-5.67 8.55 C-8.45 10.07, -11.23 11.58, -14.28 13.25 M-5.67 8.55 C-8.27 9.97, -10.87 11.38, -14.28 13.25 M-14.28 13.25 C-18.06 14.53, -21.84 15.82, -26.38 17.37 M-14.28 13.25 C-17.25 14.26, -20.21 15.27, -26.38 17.37 M-26.38 17.37 C-34.27 18.89, -42.16 20.42, -52.79 22.47 M-26.38 17.37 C-31.76 18.41, -37.14 19.44, -52.79 22.47 M-52.79 22.47 C-61.15 23.02, -69.5 23.58, -90.72 24.98 M-52.79 22.47 C-62.42 23.11, -72.05 23.75, -90.72 24.98 M-90.72 24.98 C-101.55 24.48, -112.39 23.97, -129.21 23.18 M-90.72 24.98 C-100.87 24.51, -111.01 24.03, -129.21 23.18 M-129.21 23.18 C-140.21 21.21, -151.21 19.23, -161.62 17.37 M-129.21 23.18 C-139.07 21.41, -148.93 19.64, -161.62 17.37 M-161.62 17.37 C-166.93 15.27, -172.25 13.18, -179.87 10.17 M-161.62 17.37 C-166.42 15.47, -171.22 13.58, -179.87 10.17 M-179.87 10.17 C-181.46 8.87, -183.05 7.57, -185.95 5.2 M-179.87 10.17 C-181.43 8.9, -182.98 7.63, -185.95 5.2 M-185.95 5.2 C-186.75 3.16, -187.55 1.13, -188 0 M-185.95 5.2 C-186.44 3.95, -186.93 2.71, -188 0 M-188 0 C-187.8 -0.78, -187.59 -1.55, -187.09 -3.48 M-188 0 C-187.79 -0.78, -187.59 -1.56, -187.09 -3.48 M-187.09 -3.48 C-185.7 -4.95, -184.32 -6.43, -182.33 -8.55 M-187.09 -3.48 C-185.72 -4.93, -184.36 -6.39, -182.33 -8.55 M-182.33 -8.55 C-179.71 -9.98, -177.1 -11.4, -173.72 -13.25 M-182.33 -8.55 C-179.04 -10.34, -175.76 -12.13, -173.72 -13.25 M-173.72 -13.25 C-169.61 -14.65, -165.5 -16.04, -161.62 -17.37 M-173.72 -13.25 C-169.42 -14.71, -165.13 -16.17, -161.62 -17.37 M-161.62 -17.37 C-154.28 -18.68, -146.95 -20, -129.21 -23.18 M-161.62 -17.37 C-150.09 -19.44, -138.56 -21.5, -129.21 -23.18 M-129.21 -23.18 C-118.56 -23.78, -107.91 -24.38, -97.28 -24.98 M-129.21 -23.18 C-121.22 -23.63, -113.23 -24.08, -97.28 -24.98 M-97.28 -24.98 C-85.7 -24.55, -74.13 -24.12, -64.95 -23.78 M-97.28 -24.98 C-89.79 -24.7, -82.3 -24.42, -64.95 -23.78 M-64.95 -23.78 C-54.67 -22.29, -44.39 -20.8, -32 -19 M-64.95 -23.78 C-57.19 -22.65, -49.43 -21.53, -32 -19 M-32 -19 C-25.49 -16.75, -18.99 -14.5, -11 -11.74 M-32 -19 C-24.65 -16.46, -17.3 -13.92, -11 -11.74 M-11 -11.74 C-8.37 -10.01, -5.74 -8.28, -3.64 -6.89 M-11 -11.74 C-9.31 -10.62, -7.62 -9.51, -3.64 -6.89 M-3.64 -6.89 C-2.49 -5.16, -1.35 -3.43, -0.23 -1.74 M-3.64 -6.89 C-2.59 -5.31, -1.54 -3.73, -0.23 -1.74 M-0.23 -1.74 C-0.14 -1.05, -0.05 -0.36, 0 0 M-0.23 -1.74 C-0.18 -1.38, -0.13 -1.02, 0 0 M0 0 C0 0, 0 0, 0 0 M0 0 C0 0, 0 0, 0 0" stroke="transparent" stroke-width="1" fill="none"></path></g></g><mask></mask><g stroke-linecap="round"><g transform="translate(46.12782131938809 58.299731159831936) rotate(0 59.37217868061191 -23.79972733108235)" fill-rule="evenodd"><path d="M0 0 L-1.13 -0.3 L-0.2 -6.89 L3.61 -18.19 L12.6 -32.51 L19.61 -39.2 L30.91 -44.76 L44.88 -48.08 L72.09 -48.3 L88.98 -45.38 L104.6 -35.62 L113.29 -24.02 L117.65 -11.94 L119.87 0.7 L93.09 -3.48 L61.15 -5.28 L35.13 -4.56 L5.31 -1.03 L0 0" stroke="none" stroke-width="0" fill="#ffec99" fill-rule="evenodd"></path><path d="M0 0 C-0.31 -0.08, -0.63 -0.17, -1.13 -0.3 M0 0 C-0.26 -0.07, -0.53 -0.14, -1.13 -0.3 M-1.13 -0.3 C-0.92 -1.77, -0.71 -3.25, -0.2 -6.89 M-1.13 -0.3 C-0.89 -1.98, -0.66 -3.65, -0.2 -6.89 M-0.2 -6.89 C0.65 -9.41, 1.5 -11.93, 3.61 -18.19 M-0.2 -6.89 C0.96 -10.32, 2.12 -13.76, 3.61 -18.19 M3.61 -18.19 C6.63 -22.99, 9.65 -27.8, 12.6 -32.51 M3.61 -18.19 C5.53 -21.26, 7.46 -24.33, 12.6 -32.51 M12.6 -32.51 C14.95 -34.76, 17.3 -37, 19.61 -39.2 M12.6 -32.51 C15.1 -34.9, 17.6 -37.29, 19.61 -39.2 M19.61 -39.2 C23 -40.87, 26.4 -42.54, 30.91 -44.76 M19.61 -39.2 C22.53 -40.64, 25.45 -42.07, 30.91 -44.76 M30.91 -44.76 C36.46 -46.08, 42.01 -47.4, 44.88 -48.08 M30.91 -44.76 C33.85 -45.46, 36.79 -46.15, 44.88 -48.08 M44.88 -48.08 C52.29 -48.14, 59.7 -48.2, 72.09 -48.3 M44.88 -48.08 C52.6 -48.14, 60.33 -48.2, 72.09 -48.3 M72.09 -48.3 C76.07 -47.61, 80.05 -46.93, 88.98 -45.38 M72.09 -48.3 C77.84 -47.31, 83.58 -46.32, 88.98 -45.38 M88.98 -45.38 C92.89 -42.94, 96.8 -40.5, 104.6 -35.62 M88.98 -45.38 C92.79 -43, 96.6 -40.62, 104.6 -35.62 M104.6 -35.62 C107.38 -31.91, 110.16 -28.2, 113.29 -24.02 M104.6 -35.62 C107.01 -32.41, 109.41 -29.19, 113.29 -24.02 M113.29 -24.02 C114.5 -20.69, 115.7 -17.35, 117.65 -11.94 M113.29 -24.02 C114.81 -19.81, 116.33 -15.61, 117.65 -11.94 M117.65 -11.94 C118.46 -7.33, 119.27 -2.72, 119.87 0.7 M117.65 -11.94 C118.12 -9.3, 118.58 -6.66, 119.87 0.7 M119.87 0.7 C113.57 -0.28, 107.26 -1.27, 93.09 -3.48 M119.87 0.7 C112.84 -0.4, 105.82 -1.49, 93.09 -3.48 M93.09 -3.48 C82.63 -4.07, 72.17 -4.66, 61.15 -5.28 M93.09 -3.48 C80.97 -4.16, 68.86 -4.85, 61.15 -5.28 M61.15 -5.28 C54.43 -5.1, 47.71 -4.91, 35.13 -4.56 M61.15 -5.28 C53.13 -5.06, 45.11 -4.84, 35.13 -4.56 M35.13 -4.56 C28.87 -3.82, 22.61 -3.07, 5.31 -1.03 M35.13 -4.56 C26.52 -3.54, 17.9 -2.52, 5.31 -1.03 M5.31 -1.03 C3.62 -0.7, 1.94 -0.37, 0 0 M5.31 -1.03 C3.91 -0.75, 2.5 -0.48, 0 0 M0 0 C0 0, 0 0, 0 0 M0 0 C0 0, 0 0, 0 0" stroke="transparent" stroke-width="1" fill="none"></path></g></g><mask></mask><g stroke-linecap="round"><g transform="translate(46.12782131938809 58.299731159831936) rotate(0 59.37217868061191 -6.2997311598303725)" fill-rule="evenodd"><path d="M0 0 L-1.13 -0.3 L-0.23 -6.36 L3.91 -6.3 L12.14 -9.11 L20.13 -10.29 L27.13 -13.11 L60.28 -13.3 L105.1 -9.3 L119.37 -5.25 L119.87 0.7 L93.09 -3.48 L61.15 -5.28 L35.13 -4.56 L5.31 -1.03 L0 0" stroke="none" stroke-width="0" fill="#ffec99" fill-rule="evenodd"></path><path d="M0 0 C-0.41 -0.11, -0.81 -0.22, -1.13 -0.3 M0 0 C-0.4 -0.11, -0.81 -0.21, -1.13 -0.3 M-1.13 -0.3 C-0.87 -2.05, -0.61 -3.79, -0.23 -6.36 M-1.13 -0.3 C-0.81 -2.42, -0.5 -4.55, -0.23 -6.36 M-0.23 -6.36 C0.67 -6.35, 1.57 -6.33, 3.91 -6.3 M-0.23 -6.36 C1.27 -6.34, 2.78 -6.32, 3.91 -6.3 M3.91 -6.3 C6.74 -7.27, 9.58 -8.24, 12.14 -9.11 M3.91 -6.3 C5.66 -6.9, 7.42 -7.5, 12.14 -9.11 M12.14 -9.11 C14.07 -9.4, 16 -9.68, 20.13 -10.29 M12.14 -9.11 C15.25 -9.57, 18.37 -10.03, 20.13 -10.29 M20.13 -10.29 C21.86 -10.98, 23.59 -11.68, 27.13 -13.11 M20.13 -10.29 C22.07 -11.07, 24.01 -11.85, 27.13 -13.11 M27.13 -13.11 C35.48 -13.16, 43.83 -13.21, 60.28 -13.3 M27.13 -13.11 C39.11 -13.18, 51.09 -13.25, 60.28 -13.3 M60.28 -13.3 C73.23 -12.14, 86.18 -10.99, 105.1 -9.3 M60.28 -13.3 C71.35 -12.31, 82.41 -11.32, 105.1 -9.3 M105.1 -9.3 C109.62 -8.02, 114.15 -6.73, 119.37 -5.25 M105.1 -9.3 C108.87 -8.23, 112.65 -7.16, 119.37 -5.25 M119.37 -5.25 C119.47 -4, 119.58 -2.74, 119.87 0.7 M119.37 -5.25 C119.51 -3.54, 119.66 -1.84, 119.87 0.7 M119.87 0.7 C110.57 -0.75, 101.26 -2.2, 93.09 -3.48 M119.87 0.7 C110.77 -0.72, 101.68 -2.14, 93.09 -3.48 M93.09 -3.48 C80.48 -4.19, 67.88 -4.9, 61.15 -5.28 M93.09 -3.48 C86.22 -3.87, 79.35 -4.26, 61.15 -5.28 M61.15 -5.28 C53.4 -5.07, 45.65 -4.85, 35.13 -4.56 M61.15 -5.28 C53.77 -5.08, 46.39 -4.87, 35.13 -4.56 M35.13 -4.56 C27.16 -3.61, 19.19 -2.67, 5.31 -1.03 M35.13 -4.56 C25.98 -3.47, 16.83 -2.39, 5.31 -1.03 M5.31 -1.03 C3.36 -0.65, 1.42 -0.27, 0 0 M5.31 -1.03 C3.98 -0.77, 2.66 -0.51, 0 0 M0 0 C0 0, 0 0, 0 0 M0 0 C0 0, 0 0, 0 0" stroke="transparent" stroke-width="1" fill="none"></path></g></g><mask></mask><g stroke-linecap="round"><g transform="translate(45.92323437499999 51.414453124999994) rotate(0 59.77170982154411 -19.88995172017937)" fill-rule="evenodd"><path d="M0 0 L3.81 -11.3 L12.81 -25.63 L22.24 -33.79 L31.12 -37.87 L45.08 -41.19 L72.3 -41.41 L89.19 -38.5 L104.8 -28.73 L113.5 -17.13 L119.57 1.63 L105.31 -2.41 L60.49 -6.41 L27.34 -6.23 L20.34 -3.4 L12.34 -2.23 L4.11 0.59 L-0.03 0.53 L0 0" stroke="none" stroke-width="0" fill="#ffec99" fill-rule="evenodd"></path><path d="M0 0 C1.39 -4.12, 2.78 -8.25, 3.81 -11.3 M0 0 C0.8 -2.36, 1.59 -4.72, 3.81 -11.3 M3.81 -11.3 C6.44 -15.49, 9.08 -19.68, 12.81 -25.63 M3.81 -11.3 C6.1 -14.95, 8.39 -18.6, 12.81 -25.63 M12.81 -25.63 C15.45 -27.92, 18.1 -30.2, 22.24 -33.79 M12.81 -25.63 C15.49 -27.95, 18.17 -30.27, 22.24 -33.79 M22.24 -33.79 C24.35 -34.76, 26.45 -35.73, 31.12 -37.87 M22.24 -33.79 C25.66 -35.36, 29.07 -36.93, 31.12 -37.87 M31.12 -37.87 C34.95 -38.78, 38.79 -39.7, 45.08 -41.19 M31.12 -37.87 C35.29 -38.86, 39.46 -39.86, 45.08 -41.19 M45.08 -41.19 C53.11 -41.26, 61.13 -41.32, 72.3 -41.41 M45.08 -41.19 C51.44 -41.25, 57.79 -41.3, 72.3 -41.41 M72.3 -41.41 C78.68 -40.31, 85.05 -39.21, 89.19 -38.5 M72.3 -41.41 C76.94 -40.61, 81.59 -39.81, 89.19 -38.5 M89.19 -38.5 C94.93 -34.91, 100.67 -31.32, 104.8 -28.73 M89.19 -38.5 C92.32 -36.54, 95.46 -34.58, 104.8 -28.73 M104.8 -28.73 C107.09 -25.69, 109.37 -22.64, 113.5 -17.13 M104.8 -28.73 C107.34 -25.35, 109.87 -21.98, 113.5 -17.13 M113.5 -17.13 C114.71 -13.37, 115.93 -9.61, 119.57 1.63 M113.5 -17.13 C115.58 -10.7, 117.66 -4.26, 119.57 1.63 M119.57 1.63 C116.05 0.64, 112.53 -0.36, 105.31 -2.41 M119.57 1.63 C115.56 0.5, 111.54 -0.64, 105.31 -2.41 M105.31 -2.41 C88.18 -3.94, 71.05 -5.47, 60.49 -6.41 M105.31 -2.41 C88.6 -3.91, 71.9 -5.4, 60.49 -6.41 M60.49 -6.41 C50.86 -6.36, 41.22 -6.31, 27.34 -6.23 M60.49 -6.41 C52.65 -6.37, 44.81 -6.33, 27.34 -6.23 M27.34 -6.23 C24.92 -5.25, 22.5 -4.27, 20.34 -3.4 M27.34 -6.23 C25.53 -5.5, 23.72 -4.76, 20.34 -3.4 M20.34 -3.4 C17.15 -2.93, 13.96 -2.46, 12.34 -2.23 M20.34 -3.4 C18.71 -3.16, 17.08 -2.92, 12.34 -2.23 M12.34 -2.23 C9.32 -1.19, 6.29 -0.16, 4.11 0.59 M12.34 -2.23 C10.48 -1.59, 8.62 -0.95, 4.11 0.59 M4.11 0.59 C3.2 0.57, 2.29 0.56, -0.03 0.53 M4.11 0.59 C2.93 0.57, 1.74 0.55, -0.03 0.53 M-0.03 0.53 C-0.02 0.33, -0.01 0.14, 0 0 M-0.03 0.53 C-0.02 0.34, -0.01 0.15, 0 0 M0 0 C0 0, 0 0, 0 0 M0 0 C0 0, 0 0, 0 0" stroke="transparent" stroke-width="1" fill="none"></path></g></g><mask></mask><g stroke-linecap="round"><g transform="translate(46.12782131938809 58.299731159831936) rotate(0 59.37217868061191 -6.2997311598303725)" fill-rule="evenodd"><path d="M0 0 L-1.13 -0.3 L-0.23 -6.36 L3.91 -6.3 L12.14 -9.11 L20.13 -10.29 L27.13 -13.11 L60.28 -13.3 L105.1 -9.3 L119.37 -5.25 L119.87 0.7 L93.09 -3.48 L61.15 -5.28 L35.13 -4.56 L5.31 -1.03 L0 0" stroke="none" stroke-width="0" fill="#ffec99" fill-rule="evenodd"></path><path d="M0 0 C-0.41 -0.11, -0.82 -0.22, -1.13 -0.3 M0 0 C-0.25 -0.07, -0.5 -0.13, -1.13 -0.3 M-1.13 -0.3 C-0.82 -2.38, -0.51 -4.46, -0.23 -6.36 M-1.13 -0.3 C-0.77 -2.69, -0.42 -5.08, -0.23 -6.36 M-0.23 -6.36 C1.33 -6.34, 2.89 -6.31, 3.91 -6.3 M-0.23 -6.36 C0.6 -6.35, 1.44 -6.34, 3.91 -6.3 M3.91 -6.3 C5.87 -6.97, 7.83 -7.64, 12.14 -9.11 M3.91 -6.3 C6.02 -7.02, 8.13 -7.74, 12.14 -9.11 M12.14 -9.11 C14.75 -9.5, 17.37 -9.88, 20.13 -10.29 M12.14 -9.11 C15.33 -9.58, 18.51 -10.05, 20.13 -10.29 M20.13 -10.29 C21.94 -11.02, 23.75 -11.75, 27.13 -13.11 M20.13 -10.29 C22.31 -11.16, 24.48 -12.04, 27.13 -13.11 M27.13 -13.11 C35.43 -13.16, 43.74 -13.21, 60.28 -13.3 M27.13 -13.11 C38 -13.17, 48.87 -13.24, 60.28 -13.3 M60.28 -13.3 C74.24 -12.05, 88.19 -10.81, 105.1 -9.3 M60.28 -13.3 C71.56 -12.29, 82.83 -11.29, 105.1 -9.3 M105.1 -9.3 C108.34 -8.38, 111.58 -7.46, 119.37 -5.25 M105.1 -9.3 C110.26 -7.84, 115.42 -6.37, 119.37 -5.25 M119.37 -5.25 C119.54 -3.18, 119.72 -1.1, 119.87 0.7 M119.37 -5.25 C119.48 -3.89, 119.6 -2.53, 119.87 0.7 M119.87 0.7 C109.69 -0.89, 99.5 -2.48, 93.09 -3.48 M119.87 0.7 C111.09 -0.67, 102.3 -2.04, 93.09 -3.48 M93.09 -3.48 C81.41 -4.14, 69.73 -4.8, 61.15 -5.28 M93.09 -3.48 C85.13 -3.93, 77.17 -4.38, 61.15 -5.28 M61.15 -5.28 C53.95 -5.08, 46.74 -4.88, 35.13 -4.56 M61.15 -5.28 C53.04 -5.06, 44.94 -4.83, 35.13 -4.56 M35.13 -4.56 C29.13 -3.85, 23.13 -3.14, 5.31 -1.03 M35.13 -4.56 C23.95 -3.23, 12.76 -1.91, 5.31 -1.03 M5.31 -1.03 C3.57 -0.69, 1.82 -0.35, 0 0 M5.31 -1.03 C3.96 -0.77, 2.62 -0.51, 0 0 M0 0 C0 0, 0 0, 0 0 M0 0 C0 0, 0 0, 0 0" stroke="transparent" stroke-width="1" fill="none"></path></g></g><mask></mask><g stroke-linecap="round"><g transform="translate(46.12782131938809 58.299731159831936) rotate(0 59.37217868061191 -6.2997311598303725)" fill-rule="evenodd"><path d="M0 0 L-1.13 -0.3 L-0.23 -6.36 L3.91 -6.3 L12.14 -9.11 L20.13 -10.29 L27.13 -13.11 L60.28 -13.3 L105.1 -9.3 L119.37 -5.25 L119.87 0.7 L93.09 -3.48 L61.15 -5.28 L35.13 -4.56 L5.31 -1.03 L0 0" stroke="none" stroke-width="0" fill="#ffec99" fill-rule="evenodd"></path><path d="M0 0 C-0.36 -0.1, -0.72 -0.19, -1.13 -0.3 M0 0 C-0.39 -0.1, -0.79 -0.21, -1.13 -0.3 M-1.13 -0.3 C-0.95 -1.54, -0.76 -2.77, -0.23 -6.36 M-1.13 -0.3 C-0.89 -1.92, -0.65 -3.55, -0.23 -6.36 M-0.23 -6.36 C1.32 -6.34, 2.87 -6.31, 3.91 -6.3 M-0.23 -6.36 C0.85 -6.34, 1.94 -6.33, 3.91 -6.3 M3.91 -6.3 C5.7 -6.91, 7.49 -7.53, 12.14 -9.11 M3.91 -6.3 C6.53 -7.2, 9.16 -8.09, 12.14 -9.11 M12.14 -9.11 C15.1 -9.55, 18.07 -9.98, 20.13 -10.29 M12.14 -9.11 C13.95 -9.38, 15.77 -9.65, 20.13 -10.29 M20.13 -10.29 C22.32 -11.17, 24.51 -12.05, 27.13 -13.11 M20.13 -10.29 C22.89 -11.4, 25.64 -12.51, 27.13 -13.11 M27.13 -13.11 C38.71 -13.18, 50.29 -13.24, 60.28 -13.3 M27.13 -13.11 C35.48 -13.16, 43.82 -13.21, 60.28 -13.3 M60.28 -13.3 C69.34 -12.49, 78.41 -11.68, 105.1 -9.3 M60.28 -13.3 C72.75 -12.19, 85.21 -11.07, 105.1 -9.3 M105.1 -9.3 C110.75 -7.7, 116.39 -6.1, 119.37 -5.25 M105.1 -9.3 C107.98 -8.48, 110.85 -7.67, 119.37 -5.25 M119.37 -5.25 C119.49 -3.8, 119.61 -2.35, 119.87 0.7 M119.37 -5.25 C119.48 -3.96, 119.59 -2.66, 119.87 0.7 M119.87 0.7 C113.45 -0.3, 107.03 -1.3, 93.09 -3.48 M119.87 0.7 C109.18 -0.97, 98.5 -2.64, 93.09 -3.48 M93.09 -3.48 C85.43 -3.91, 77.77 -4.35, 61.15 -5.28 M93.09 -3.48 C83.15 -4.04, 73.21 -4.6, 61.15 -5.28 M61.15 -5.28 C54.52 -5.1, 47.89 -4.91, 35.13 -4.56 M61.15 -5.28 C55.37 -5.12, 49.6 -4.96, 35.13 -4.56 M35.13 -4.56 C28.13 -3.73, 21.13 -2.9, 5.31 -1.03 M35.13 -4.56 C25.71 -3.44, 16.29 -2.33, 5.31 -1.03 M5.31 -1.03 C3.94 -0.76, 2.57 -0.5, 0 0 M5.31 -1.03 C3.69 -0.71, 2.07 -0.4, 0 0 M0 0 C0 0, 0 0, 0 0 M0 0 C0 0, 0 0, 0 0" stroke="transparent" stroke-width="1" fill="none"></path></g></g><mask></mask><g stroke-linecap="round"><g transform="translate(46.12782131938809 58.299731159831936) rotate(0 59.37217868061191 -6.2997311598303725)" fill-rule="evenodd"><path d="M0 0 L-1.13 -0.3 L-0.23 -6.36 L3.91 -6.3 L12.14 -9.11 L20.13 -10.29 L27.13 -13.11 L60.28 -13.3 L105.1 -9.3 L119.37 -5.25 L119.87 0.7 L93.09 -3.48 L61.15 -5.28 L35.13 -4.56 L5.31 -1.03 L0 0" stroke="none" stroke-width="0" fill="#e03131" fill-rule="evenodd"></path><path d="M0 0 C-0.26 -0.07, -0.52 -0.14, -1.13 -0.3 M0 0 C-0.44 -0.12, -0.89 -0.24, -1.13 -0.3 M-1.13 -0.3 C-0.88 -2.01, -0.62 -3.71, -0.23 -6.36 M-1.13 -0.3 C-0.92 -1.68, -0.72 -3.06, -0.23 -6.36 M-0.23 -6.36 C1.36 -6.34, 2.95 -6.31, 3.91 -6.3 M-0.23 -6.36 C0.87 -6.34, 1.97 -6.33, 3.91 -6.3 M3.91 -6.3 C6.29 -7.11, 8.67 -7.93, 12.14 -9.11 M3.91 -6.3 C6.54 -7.2, 9.18 -8.1, 12.14 -9.11 M12.14 -9.11 C13.92 -9.37, 15.71 -9.64, 20.13 -10.29 M12.14 -9.11 C15.17 -9.56, 18.2 -10, 20.13 -10.29 M20.13 -10.29 C22.08 -11.07, 24.02 -11.86, 27.13 -13.11 M20.13 -10.29 C21.69 -10.91, 23.25 -11.54, 27.13 -13.11 M27.13 -13.11 C40.29 -13.19, 53.45 -13.26, 60.28 -13.3 M27.13 -13.11 C34.92 -13.16, 42.7 -13.2, 60.28 -13.3 M60.28 -13.3 C76.69 -11.84, 93.09 -10.37, 105.1 -9.3 M60.28 -13.3 C69.94 -12.44, 79.6 -11.58, 105.1 -9.3 M105.1 -9.3 C110.77 -7.69, 116.44 -6.08, 119.37 -5.25 M105.1 -9.3 C110.71 -7.71, 116.32 -6.12, 119.37 -5.25 M119.37 -5.25 C119.53 -3.35, 119.69 -1.46, 119.87 0.7 M119.37 -5.25 C119.49 -3.84, 119.61 -2.43, 119.87 0.7 M119.87 0.7 C110.22 -0.81, 100.57 -2.31, 93.09 -3.48 M119.87 0.7 C112.64 -0.43, 105.41 -1.56, 93.09 -3.48 M93.09 -3.48 C82.13 -4.1, 71.17 -4.72, 61.15 -5.28 M93.09 -3.48 C84.11 -3.99, 75.14 -4.49, 61.15 -5.28 M61.15 -5.28 C54.24 -5.09, 47.34 -4.9, 35.13 -4.56 M61.15 -5.28 C52.38 -5.04, 43.6 -4.79, 35.13 -4.56 M35.13 -4.56 C26.45 -3.53, 17.77 -2.5, 5.31 -1.03 M35.13 -4.56 C23.28 -3.15, 11.43 -1.75, 5.31 -1.03 M5.31 -1.03 C3.52 -0.68, 1.74 -0.34, 0 0 M5.31 -1.03 C3.59 -0.69, 1.88 -0.36, 0 0 M0 0 C0 0, 0 0, 0 0 M0 0 C0 0, 0 0, 0 0" stroke="transparent" stroke-width="1" fill="none"></path></g></g><mask></mask><g transform="translate(45 58) rotate(0 60.5 -23.5)" stroke="none"><path fill="#1e1e1e" d="M 1.4,8.57 Q 1.4,8.57 1.38,0.13 1.37,0.27 1.33,0.40 1.29,0.53 1.22,0.65 1.16,0.77 1.07,0.88 0.98,0.98 0.88,1.07 0.77,1.16 0.65,1.22 0.53,1.29 0.40,1.33 0.27,1.37 0.13,1.38 -1.71,1.4 -0.13,1.38 -0.27,1.37 -0.40,1.33 -0.53,1.29 -0.65,1.22 -0.77,1.16 -0.88,1.07 -0.98,0.98 -1.07,0.88 -1.16,0.77 -1.22,0.65 -1.29,0.53 -1.33,0.40 -1.37,0.27 -1.38,0.13 -1.4,-8.57 -1.4,-0.25 -1.4,-0.5 -1.4,-0.87 -1.4,-1.25 -1.38,-2.07 -1.37,-2.90 -1.10,-3.57 -0.83,-4.24 -0.73,-4.68 -0.63,-5.11 -0.55,-5.95 -0.48,-6.79 -0.17,-7.52 0.13,-8.25 0.50,-9.26 0.88,-10.27 1.05,-10.98 1.23,-11.70 1.35,-12.42 1.47,-13.15 1.80,-13.79 2.12,-14.43 2.49,-15.39 2.86,-16.35 3.08,-17.17 3.30,-17.98 3.68,-18.68 4.06,-19.39 4.50,-20.24 4.95,-21.09 5.45,-21.81 5.96,-22.53 6.40,-23.05 6.84,-23.58 7.07,-24.09 7.30,-24.61 7.69,-25.16 8.08,-25.71 8.52,-26.49 8.97,-27.27 9.68,-28.14 10.39,-29.00 10.74,-29.68 11.09,-30.35 11.50,-30.91 11.91,-31.48 12.18,-32.11 12.45,-32.74 12.82,-33.03 13.19,-33.32 13.31,-33.63 13.44,-33.94 13.84,-34.47 14.24,-35.00 14.71,-35.53 15.19,-36.06 16.43,-37.08 17.67,-38.09 18.58,-38.88 19.48,-39.66 20.19,-40.04 20.89,-40.43 21.47,-40.86 22.04,-41.29 22.93,-41.81 23.81,-42.33 24.49,-42.58 25.18,-42.83 25.93,-43.16 26.68,-43.49 27.39,-43.95 28.10,-44.41 28.96,-44.64 29.82,-44.86 30.50,-45.23 31.18,-45.59 32.08,-45.79 32.99,-45.99 34.18,-46.34 35.38,-46.69 36.71,-46.86 38.05,-47.03 39.19,-47.36 40.33,-47.69 41.14,-47.85 41.95,-48.01 42.86,-48.34 43.76,-48.67 44.56,-48.86 45.35,-49.04 46.27,-49.13 47.19,-49.23 48.40,-49.27 49.61,-49.31 51.46,-49.33 53.30,-49.35 54.73,-49.36 56.15,-49.37 57.36,-49.38 58.57,-49.38 59.68,-49.39 60.78,-49.39 61.59,-49.39 62.39,-49.39 63.04,-49.39 63.69,-49.39 64.27,-49.39 64.84,-49.39 65.88,-49.39 66.92,-49.39 67.94,-49.39 68.96,-49.39 70.77,-49.39 72.58,-49.39 74.25,-49.14 75.91,-48.88 77.19,-48.76 78.48,-48.64 79.37,-48.58 80.26,-48.52 81.08,-48.47 81.91,-48.42 82.55,-48.14 83.19,-47.87 83.88,-47.76 84.56,-47.65 85.60,-47.55 86.63,-47.46 87.12,-47.16 87.61,-46.86 88.18,-46.76 88.76,-46.66 89.47,-46.57 90.18,-46.48 90.90,-46.12 91.62,-45.75 92.17,-45.35 92.71,-44.95 93.49,-44.49 94.27,-44.04 95.20,-43.27 96.14,-42.51 96.77,-41.94 97.40,-41.38 98.45,-40.85 99.51,-40.32 100.32,-39.78 101.13,-39.24 102.05,-38.72 102.96,-38.20 103.59,-37.73 104.22,-37.26 105.19,-36.94 106.15,-36.61 106.91,-35.41 107.66,-34.21 108.50,-33.65 109.34,-33.09 110.33,-31.45 111.33,-29.82 111.97,-28.90 112.61,-27.97 113.23,-27.45 113.85,-26.92 114.20,-26.36 114.54,-25.80 114.97,-25.25 115.40,-24.70 115.65,-24.10 115.90,-23.49 116.28,-22.42 116.65,-21.35 116.82,-20.38 116.98,-19.41 117.31,-18.69 117.64,-17.97 117.79,-17.38 117.95,-16.79 118.29,-16.21 118.63,-15.63 118.77,-14.90 118.92,-14.18 119.22,-13.83 119.53,-13.49 119.77,-12.87 120.01,-12.25 120.12,-11.68 120.22,-11.10 120.25,-10.45 120.27,-9.79 120.53,-9.21 120.80,-8.63 120.93,-7.83 121.06,-7.04 121.36,-6.42 121.67,-5.80 121.86,-5.12 122.05,-4.44 122.14,-3.82 122.23,-3.21 122.27,-2.40 122.31,-1.59 122.33,-0.81 122.34,-0.03 122.30,0.09 122.26,0.22 122.20,0.34 122.14,0.47 122.06,0.58 121.98,0.68 121.87,0.77 121.77,0.86 121.65,0.93 121.53,1.00 121.40,1.05 121.27,1.09 121.14,1.11 121.00,1.12 120.86,1.12 120.73,1.11 120.59,1.07 120.46,1.04 120.34,0.97 120.21,0.91 120.11,0.83 120.00,0.75 119.91,0.64 119.82,0.54 119.75,0.42 119.68,0.30 119.64,0.17 119.59,0.04 119.57,-0.08 119.56,-0.22 119.57,-0.36 119.57,-0.49 119.61,-0.63 119.65,-0.76 119.71,-0.88 119.77,-1.01 119.85,-1.11 119.93,-1.22 120.04,-1.31 120.14,-1.40 120.26,-1.47 120.38,-1.54 120.51,-1.58 120.64,-1.63 120.78,-1.65 120.91,-1.66 121.05,-1.65 121.19,-1.65 121.32,-1.61 121.45,-1.57 121.57,-1.51 121.70,-1.45 121.81,-1.37 121.91,-1.28 122.00,-1.18 122.09,-1.08 122.16,-0.96 122.23,-0.84 122.28,-0.71 122.32,-0.58 122.34,-0.44 122.35,-0.31 122.35,-0.17 122.34,-0.03 122.30,0.09 122.26,0.22 122.20,0.34 122.14,0.47 122.06,0.58 121.98,0.68 121.87,0.77 121.77,0.86 121.65,0.93 121.53,1.00 121.40,1.05 121.27,1.09 121.14,1.11 121.00,1.12 120.86,1.12 120.73,1.11 120.59,1.07 120.46,1.04 120.34,0.97 120.21,0.91 120.11,0.83 120.00,0.75 119.91,0.64 119.82,0.54 119.75,0.42 119.68,0.30 119.64,0.17 119.59,0.04 119.57,-0.08 119.56,-0.22 119.54,-0.85 119.52,-1.48 119.48,-2.20 119.44,-2.93 119.38,-3.40 119.31,-3.86 119.18,-4.34 119.05,-4.81 118.72,-5.50 118.39,-6.19 118.25,-7.01 118.11,-7.83 117.83,-8.49 117.55,-9.14 117.49,-9.96 117.44,-10.78 117.37,-11.15 117.31,-11.52 117.22,-11.79 117.12,-12.07 116.76,-12.50 116.41,-12.94 116.21,-13.77 116.02,-14.61 115.70,-15.15 115.37,-15.70 115.18,-16.36 115.00,-17.02 114.65,-17.80 114.31,-18.58 114.12,-19.61 113.94,-20.64 113.61,-21.57 113.28,-22.51 113.13,-22.90 112.98,-23.29 112.61,-23.75 112.24,-24.20 111.98,-24.65 111.72,-25.10 111.13,-25.59 110.54,-26.08 109.76,-27.19 108.98,-28.30 108.14,-29.73 107.30,-31.16 106.47,-31.72 105.63,-32.28 105.03,-33.34 104.44,-34.40 103.71,-34.58 102.98,-34.75 102.21,-35.30 101.44,-35.85 100.55,-36.35 99.67,-36.86 98.88,-37.38 98.10,-37.90 96.96,-38.48 95.83,-39.06 95.07,-39.72 94.32,-40.38 93.50,-41.06 92.67,-41.74 91.92,-42.18 91.17,-42.61 90.65,-42.99 90.14,-43.38 89.75,-43.59 89.36,-43.80 88.85,-43.85 88.33,-43.89 87.45,-44.08 86.58,-44.26 86.17,-44.53 85.76,-44.80 84.99,-44.83 84.23,-44.87 83.31,-45.03 82.39,-45.18 81.83,-45.44 81.27,-45.69 80.68,-45.71 80.10,-45.72 79.18,-45.79 78.25,-45.85 76.91,-45.98 75.56,-46.11 73.97,-46.35 72.37,-46.60 70.66,-46.60 68.96,-46.59 67.94,-46.59 66.92,-46.59 65.88,-46.59 64.84,-46.59 64.27,-46.59 63.69,-46.59 63.04,-46.59 62.39,-46.59 61.59,-46.59 60.79,-46.59 59.68,-46.59 58.58,-46.58 57.37,-46.58 56.16,-46.57 54.75,-46.56 53.33,-46.55 51.50,-46.53 49.67,-46.51 48.53,-46.47 47.38,-46.43 46.59,-46.36 45.81,-46.28 45.18,-46.13 44.56,-45.99 43.63,-45.65 42.71,-45.31 41.85,-45.14 40.99,-44.96 39.80,-44.62 38.61,-44.28 37.28,-44.11 35.95,-43.95 34.81,-43.61 33.67,-43.28 32.91,-43.12 32.15,-42.96 31.50,-42.61 30.85,-42.26 30.04,-42.05 29.24,-41.85 28.63,-41.44 28.02,-41.03 27.12,-40.63 26.22,-40.23 25.61,-40.01 25.00,-39.79 24.30,-39.37 23.59,-38.96 22.99,-38.51 22.39,-38.07 21.74,-37.72 21.09,-37.36 20.28,-36.66 19.48,-35.95 18.30,-35.00 17.12,-34.04 16.76,-33.63 16.40,-33.22 16.12,-32.86 15.84,-32.50 15.60,-32.04 15.37,-31.57 15.03,-31.32 14.68,-31.06 14.52,-30.60 14.37,-30.13 13.92,-29.51 13.47,-28.88 13.10,-28.17 12.73,-27.47 12.00,-26.57 11.28,-25.68 10.86,-24.94 10.43,-24.20 10.08,-23.71 9.73,-23.22 9.48,-22.66 9.22,-22.10 8.70,-21.46 8.18,-20.83 7.76,-20.23 7.34,-19.63 6.94,-18.85 6.53,-18.07 6.21,-17.50 5.90,-16.94 5.71,-16.22 5.53,-15.50 5.10,-14.39 4.67,-13.28 4.40,-12.78 4.13,-12.28 4.05,-11.71 3.98,-11.15 3.76,-10.30 3.55,-9.45 3.14,-8.32 2.73,-7.20 2.48,-6.65 2.23,-6.10 2.18,-5.40 2.13,-4.69 1.98,-4.03 1.83,-3.38 1.60,-2.86 1.37,-2.34 1.38,-1.79 1.4,-1.25 1.4,-0.87 1.4,-0.5 1.4,-0.24 1.4,8.57 1.4,8.57 L 1.4,8.57 Z"></path></g><g transform="translate(44 58) rotate(0 0.00004999999998744897 0.00004999999998744897)" stroke="none"><path fill="#1e1e1e" d="M -0.49,0.49 Q -0.49,0.49 -0.53,0.44 -0.58,0.38 -0.61,0.32 -0.64,0.26 -0.66,0.20 -0.68,0.13 -0.69,0.06 -0.7,-5.35 -0.69,-0.06 -0.68,-0.13 -0.66,-0.20 -0.64,-0.26 -0.61,-0.32 -0.58,-0.38 -0.53,-0.44 -0.49,-0.49 -0.44,-0.53 -0.38,-0.58 -0.32,-0.61 -0.26,-0.64 -0.20,-0.66 -0.13,-0.68 -0.06,-0.69 1.73,-0.7 0.06,-0.69 0.13,-0.68 0.20,-0.66 0.26,-0.64 0.32,-0.61 0.38,-0.58 0.44,-0.53 0.49,-0.49 0.53,-0.44 0.58,-0.38 0.61,-0.32 0.64,-0.26 0.66,-0.20 0.68,-0.13 0.69,-0.06 0.70,0.00 0.69,0.06 0.68,0.13 0.66,0.20 0.64,0.26 0.61,0.32 0.58,0.38 0.53,0.44 0.49,0.49 0.44,0.53 0.38,0.58 0.32,0.61 0.26,0.64 0.20,0.66 0.13,0.68 0.06,0.69 0.00,0.70 -0.06,0.69 -0.13,0.68 -0.20,0.66 -0.26,0.64 -0.32,0.61 -0.38,0.58 -0.44,0.53 -0.49,0.49 -0.49,0.49 L -0.49,0.49 Z"></path></g><g transform="translate(38 61) rotate(0 0.00004999999998744897 0.00004999999998744897)" stroke="none"><path fill="#1e1e1e" d="M -0.49,0.49 Q -0.49,0.49 -0.53,0.44 -0.58,0.38 -0.61,0.32 -0.64,0.26 -0.66,0.20 -0.68,0.13 -0.69,0.06 -0.7,-5.35 -0.69,-0.06 -0.68,-0.13 -0.66,-0.20 -0.64,-0.26 -0.61,-0.32 -0.58,-0.38 -0.53,-0.44 -0.49,-0.49 -0.44,-0.53 -0.38,-0.58 -0.32,-0.61 -0.26,-0.64 -0.20,-0.66 -0.13,-0.68 -0.06,-0.69 1.73,-0.7 0.06,-0.69 0.13,-0.68 0.20,-0.66 0.26,-0.64 0.32,-0.61 0.38,-0.58 0.44,-0.53 0.49,-0.49 0.53,-0.44 0.58,-0.38 0.61,-0.32 0.64,-0.26 0.66,-0.20 0.68,-0.13 0.69,-0.06 0.70,0.00 0.69,0.06 0.68,0.13 0.66,0.20 0.64,0.26 0.61,0.32 0.58,0.38 0.53,0.44 0.49,0.49 0.44,0.53 0.38,0.58 0.32,0.61 0.26,0.64 0.20,0.66 0.13,0.68 0.06,0.69 0.00,0.70 -0.06,0.69 -0.13,0.68 -0.20,0.66 -0.26,0.64 -0.32,0.61 -0.38,0.58 -0.44,0.53 -0.49,0.49 -0.49,0.49 L -0.49,0.49 Z"></path></g><g transform="translate(47 52) rotate(0 59.5 -3)" stroke="none"><path fill="#1e1e1e" d="M -4.28,0.7 Q -4.28,0.7 -0.06,0.69 -0.13,0.68 -0.20,0.66 -0.26,0.64 -0.32,0.61 -0.38,0.58 -0.44,0.53 -0.49,0.49 -0.53,0.44 -0.58,0.38 -0.61,0.32 -0.64,0.26 -0.66,0.20 -0.68,0.13 -0.69,0.06 -0.7,-8.57 -0.69,-0.06 -0.68,-0.13 -0.66,-0.20 -0.64,-0.26 -0.61,-0.32 -0.58,-0.38 -0.53,-0.44 -0.49,-0.49 -0.44,-0.53 -0.38,-0.58 -0.32,-0.61 -0.26,-0.64 -0.20,-0.66 -0.13,-0.68 -0.06,-0.69 4.28,-0.7 0.25,-0.7 0.5,-0.7 0.87,-0.7 1.25,-0.7 1.68,-0.7 2.12,-0.7 2.53,-0.69 2.94,-0.69 3.64,-0.93 4.34,-1.17 4.89,-1.27 5.43,-1.36 5.71,-1.66 5.99,-1.96 6.50,-2.16 7.00,-2.36 7.50,-2.45 8.00,-2.53 8.42,-2.56 8.84,-2.59 9.30,-2.85 9.76,-3.10 10.31,-3.26 10.87,-3.41 11.40,-3.48 11.93,-3.56 12.45,-3.59 12.96,-3.63 13.39,-3.63 13.82,-3.64 14.28,-3.89 14.75,-4.13 15.30,-4.28 15.86,-4.42 16.40,-4.49 16.93,-4.56 17.44,-4.60 17.96,-4.63 18.34,-4.62 18.71,-4.60 18.92,-4.84 19.12,-5.07 19.52,-5.21 19.92,-5.36 20.36,-5.67 20.80,-5.99 21.35,-6.17 21.89,-6.36 22.42,-6.45 22.94,-6.53 23.38,-6.56 23.81,-6.59 24.28,-6.85 24.74,-7.11 25.31,-7.26 25.88,-7.41 26.66,-7.49 27.45,-7.56 28.08,-7.59 28.72,-7.63 29.54,-7.64 30.36,-7.66 31.02,-7.67 31.68,-7.68 32.26,-7.68 32.83,-7.69 33.37,-7.69 33.91,-7.69 34.43,-7.69 34.95,-7.69 35.46,-7.69 35.97,-7.69 36.48,-7.69 36.98,-7.69 37.49,-7.69 37.99,-7.69 38.49,-7.69 38.99,-7.69 39.49,-7.69 39.99,-7.69 40.49,-7.69 40.99,-7.69 41.49,-7.69 41.99,-7.69 42.49,-7.69 42.99,-7.69 43.49,-7.69 43.99,-7.69 44.49,-7.69 44.99,-7.69 45.74,-7.69 46.49,-7.69 47.12,-7.69 47.74,-7.69 48.31,-7.69 48.87,-7.69 49.40,-7.69 49.93,-7.69 50.45,-7.69 50.96,-7.69 51.47,-7.69 51.98,-7.69 52.48,-7.69 52.99,-7.69 53.49,-7.69 53.99,-7.69 54.49,-7.69 54.99,-7.69 55.49,-7.69 55.99,-7.69 56.49,-7.69 56.99,-7.69 58.05,-7.69 59.11,-7.69 59.89,-7.43 60.67,-7.17 61.26,-7.05 61.85,-6.94 62.39,-6.88 62.93,-6.82 63.45,-6.79 63.96,-6.76 64.47,-6.74 64.98,-6.73 65.48,-6.72 65.99,-6.71 66.49,-6.71 66.99,-6.70 67.49,-6.70 67.99,-6.70 68.49,-6.70 68.99,-6.70 69.74,-6.70 70.49,-6.70 71.87,-6.70 73.24,-6.70 74.18,-6.70 75.12,-6.70 76.15,-6.69 77.17,-6.69 77.93,-6.43 78.69,-6.18 79.52,-6.06 80.34,-5.94 81.01,-5.88 81.68,-5.82 82.26,-5.79 82.84,-5.76 83.63,-5.74 84.41,-5.73 85.06,-5.72 85.71,-5.71 86.33,-5.70 86.96,-5.69 87.77,-5.44 88.58,-5.18 89.43,-5.06 90.29,-4.94 90.97,-4.88 91.65,-4.82 92.24,-4.79 92.83,-4.76 93.50,-4.72 94.16,-4.67 94.48,-4.39 94.80,-4.11 95.09,-4.02 95.38,-3.93 95.78,-3.88 96.18,-3.82 96.63,-3.79 97.09,-3.76 97.56,-3.74 98.04,-3.73 98.53,-3.72 99.02,-3.71 99.76,-3.71 100.51,-3.70 101.13,-3.70 101.75,-3.70 102.31,-3.70 102.87,-3.70 103.48,-3.69 104.09,-3.68 104.65,-3.42 105.20,-3.15 105.73,-3.02 106.25,-2.89 106.76,-2.57 107.28,-2.26 107.71,-2.12 108.15,-1.99 108.61,-1.92 109.07,-1.85 109.63,-1.80 110.19,-1.74 110.72,-1.46 111.25,-1.18 111.69,-1.07 112.13,-0.95 112.60,-0.89 113.07,-0.83 113.63,-0.78 114.19,-0.74 114.72,-0.46 115.25,-0.18 115.69,-0.06 116.13,0.04 116.60,0.10 117.06,0.17 117.62,0.21 118.18,0.25 118.24,0.28 118.31,0.30 118.36,0.34 118.42,0.37 118.47,0.42 118.52,0.47 118.56,0.52 118.60,0.58 118.63,0.64 118.66,0.70 118.67,0.77 118.69,0.84 118.69,0.91 118.69,0.97 118.68,1.04 118.67,1.11 118.65,1.17 118.62,1.24 118.59,1.30 118.55,1.36 118.50,1.41 118.46,1.46 118.40,1.50 118.34,1.53 118.28,1.56 118.22,1.59 118.15,1.61 118.09,1.62 118.02,1.62 117.95,1.63 117.88,1.62 117.81,1.60 117.75,1.58 117.68,1.56 117.63,1.52 117.57,1.48 117.52,1.44 117.47,1.39 117.43,1.33 117.39,1.28 117.36,1.22 117.33,1.15 117.32,1.09 117.30,1.02 117.30,0.95 117.30,0.88 117.31,0.81 117.32,0.75 117.34,0.68 117.37,0.62 117.40,0.56 117.44,0.50 117.49,0.45 117.53,0.40 117.59,0.36 117.65,0.32 117.71,0.29 117.77,0.27 117.84,0.25 117.90,0.23 117.97,0.23 118.04,0.23 118.11,0.24 118.18,0.25 118.24,0.28 118.31,0.30 118.36,0.34 118.42,0.37 118.47,0.42 118.52,0.47 118.56,0.52 118.60,0.58 118.63,0.64 118.66,0.70 118.67,0.77 118.69,0.84 118.69,0.91 118.69,0.97 118.68,1.04 118.67,1.11 118.65,1.17 118.62,1.24 118.59,1.30 118.55,1.36 118.50,1.41 118.46,1.46 118.40,1.50 118.34,1.53 118.28,1.56 118.22,1.59 118.15,1.61 118.09,1.62 118.02,1.62 117.95,1.63 117.44,1.59 116.93,1.56 116.39,1.49 115.86,1.41 115.30,1.26 114.74,1.11 114.27,0.86 113.80,0.60 113.36,0.58 112.92,0.56 112.39,0.48 111.86,0.41 111.30,0.26 110.74,0.11 110.27,-0.14 109.80,-0.40 109.35,-0.43 108.91,-0.46 108.37,-0.54 107.83,-0.63 107.26,-0.80 106.70,-0.98 106.20,-1.29 105.71,-1.60 105.22,-1.72 104.73,-1.84 104.25,-2.08 103.78,-2.31 103.32,-2.31 102.87,-2.30 102.31,-2.30 101.75,-2.30 101.12,-2.30 100.50,-2.30 99.75,-2.31 99.00,-2.31 98.50,-2.32 98.01,-2.33 97.51,-2.34 97.02,-2.36 96.52,-2.39 96.03,-2.43 95.55,-2.50 95.06,-2.57 94.57,-2.74 94.09,-2.91 93.86,-3.14 93.63,-3.38 93.20,-3.37 92.77,-3.36 92.16,-3.39 91.55,-3.42 90.84,-3.49 90.13,-3.55 89.20,-3.68 88.26,-3.82 87.50,-4.06 86.74,-4.31 86.21,-4.31 85.69,-4.31 85.04,-4.32 84.39,-4.33 83.59,-4.34 82.79,-4.36 82.18,-4.39 81.58,-4.42 80.88,-4.49 80.18,-4.55 79.27,-4.68 78.36,-4.81 77.65,-5.06 76.94,-5.30 76.03,-5.30 75.12,-5.30 74.18,-5.30 73.24,-5.30 71.87,-5.30 70.49,-5.30 69.74,-5.30 68.99,-5.30 68.49,-5.30 67.99,-5.30 67.49,-5.30 66.98,-5.30 66.48,-5.31 65.97,-5.31 65.46,-5.32 64.95,-5.33 64.42,-5.34 63.90,-5.36 63.36,-5.39 62.81,-5.42 62.22,-5.49 61.64,-5.55 60.98,-5.69 60.32,-5.82 59.60,-6.06 58.88,-6.30 57.94,-6.30 56.99,-6.29 56.49,-6.29 55.99,-6.29 55.49,-6.29 54.99,-6.29 54.49,-6.29 53.99,-6.29 53.49,-6.29 52.99,-6.29 52.48,-6.29 51.98,-6.29 51.47,-6.29 50.96,-6.29 50.45,-6.29 49.93,-6.29 49.40,-6.29 48.87,-6.29 48.31,-6.29 47.74,-6.29 47.12,-6.29 46.49,-6.29 45.74,-6.29 44.99,-6.29 44.49,-6.29 43.99,-6.29 43.49,-6.29 42.99,-6.29 42.49,-6.29 41.99,-6.29 41.49,-6.29 40.99,-6.29 40.49,-6.29 39.99,-6.29 39.49,-6.29 38.99,-6.29 38.49,-6.29 37.99,-6.29 37.49,-6.29 36.99,-6.29 36.48,-6.29 35.98,-6.29 35.47,-6.29 34.96,-6.29 34.44,-6.29 33.92,-6.29 33.38,-6.29 32.84,-6.29 32.27,-6.28 31.69,-6.28 31.04,-6.27 30.38,-6.26 29.58,-6.24 28.77,-6.23 28.16,-6.20 27.55,-6.16 26.83,-6.10 26.12,-6.04 25.69,-5.92 25.26,-5.81 24.74,-5.53 24.21,-5.25 23.66,-5.19 23.11,-5.14 22.67,-5.07 22.23,-5.00 21.83,-4.87 21.44,-4.74 21.00,-4.43 20.57,-4.12 20.22,-4.00 19.87,-3.89 19.57,-3.61 19.28,-3.32 18.65,-3.28 18.03,-3.23 17.55,-3.20 17.06,-3.17 16.60,-3.11 16.13,-3.05 15.69,-2.94 15.25,-2.82 14.71,-2.55 14.17,-2.28 13.60,-2.26 13.03,-2.23 12.55,-2.20 12.07,-2.16 11.61,-2.10 11.15,-2.04 10.71,-1.92 10.28,-1.81 9.76,-1.53 9.25,-1.25 8.71,-1.20 8.18,-1.14 7.78,-1.08 7.37,-1.01 7.07,-0.90 6.76,-0.78 6.43,-0.46 6.09,-0.13 5.40,0.02 4.71,0.17 3.94,0.43 3.17,0.69 2.65,0.69 2.12,0.7 1.68,0.7 1.25,0.7 0.87,0.7 0.5,0.7 0.24,0.7 -4.28,0.7 -4.28,0.7 L -4.28,0.7 Z"></path></g><g transform="translate(79 50) rotate(0 0.00004999999998744897 0.00005000000000165983)" stroke="none"><path fill="#e03131" d="M -0.49,0.49 Q -0.49,0.49 -0.53,0.44 -0.58,0.38 -0.61,0.32 -0.64,0.26 -0.66,0.20 -0.68,0.13 -0.69,0.06 -0.7,-5.35 -0.69,-0.06 -0.68,-0.13 -0.66,-0.20 -0.64,-0.26 -0.61,-0.32 -0.58,-0.38 -0.53,-0.44 -0.49,-0.49 -0.44,-0.53 -0.38,-0.58 -0.32,-0.61 -0.26,-0.64 -0.20,-0.66 -0.13,-0.68 -0.06,-0.69 1.73,-0.7 0.06,-0.69 0.13,-0.68 0.20,-0.66 0.26,-0.64 0.32,-0.61 0.38,-0.58 0.44,-0.53 0.49,-0.49 0.53,-0.44 0.58,-0.38 0.61,-0.32 0.64,-0.26 0.66,-0.20 0.68,-0.13 0.69,-0.06 0.70,0.00 0.69,0.06 0.68,0.13 0.66,0.20 0.64,0.26 0.61,0.32 0.58,0.38 0.53,0.44 0.49,0.49 0.44,0.53 0.38,0.58 0.32,0.61 0.26,0.64 0.20,0.66 0.13,0.68 0.06,0.69 0.00,0.70 -0.06,0.69 -0.13,0.68 -0.20,0.66 -0.26,0.64 -0.32,0.61 -0.38,0.58 -0.44,0.53 -0.49,0.49 -0.49,0.49 L -0.49,0.49 Z"></path></g><g transform="translate(79 50) rotate(0 0.00004999999998744897 0.00005000000000165983)" stroke="none"><path fill="#e03131" d="M -0.49,0.49 Q -0.49,0.49 -0.53,0.44 -0.58,0.38 -0.61,0.32 -0.64,0.26 -0.66,0.20 -0.68,0.13 -0.69,0.06 -0.7,-5.35 -0.69,-0.06 -0.68,-0.13 -0.66,-0.20 -0.64,-0.26 -0.61,-0.32 -0.58,-0.38 -0.53,-0.44 -0.49,-0.49 -0.44,-0.53 -0.38,-0.58 -0.32,-0.61 -0.26,-0.64 -0.20,-0.66 -0.13,-0.68 -0.06,-0.69 1.73,-0.7 0.06,-0.69 0.13,-0.68 0.20,-0.66 0.26,-0.64 0.32,-0.61 0.38,-0.58 0.44,-0.53 0.49,-0.49 0.53,-0.44 0.58,-0.38 0.61,-0.32 0.64,-0.26 0.66,-0.20 0.68,-0.13 0.69,-0.06 0.70,0.00 0.69,0.06 0.68,0.13 0.66,0.20 0.64,0.26 0.61,0.32 0.58,0.38 0.53,0.44 0.49,0.49 0.44,0.53 0.38,0.58 0.32,0.61 0.26,0.64 0.20,0.66 0.13,0.68 0.06,0.69 0.00,0.70 -0.06,0.69 -0.13,0.68 -0.20,0.66 -0.26,0.64 -0.32,0.61 -0.38,0.58 -0.44,0.53 -0.49,0.49 -0.49,0.49 L -0.49,0.49 Z"></path></g><g stroke-linecap="round" transform="translate(44 70) rotate(0 64 10)"><path d="M92.29 0.29 C102.52 0.8, 112.46 2.83, 118.49 4.67 C124.52 6.51, 128.8 9.45, 128.45 11.34 C128.09 13.23, 122.89 14.57, 116.37 16 C109.85 17.43, 99.85 19.36, 89.32 19.92 C78.78 20.48, 64.56 19.88, 53.16 19.35 C41.75 18.83, 29.39 18.03, 20.87 16.77 C12.36 15.51, 5.07 13.62, 2.06 11.8 C-0.95 9.97, -0.68 7.39, 2.81 5.83 C6.3 4.26, 13.87 3.45, 22.99 2.41 C32.1 1.37, 44.04 -0.23, 57.49 -0.43 C70.93 -0.63, 94.84 0.58, 103.68 1.2 C112.52 1.81, 111.17 3.06, 110.53 3.28 M41.04 2.09 C51.06 1.29, 64.98 -1.5, 76.45 -1.13 C87.91 -0.75, 101.64 3.1, 109.83 4.33 C118.02 5.57, 123.45 4.78, 125.59 6.3 C127.73 7.83, 126.5 11.43, 122.66 13.5 C118.82 15.56, 111.25 17.77, 102.55 18.69 C93.85 19.61, 81.81 19.11, 70.45 18.99 C59.1 18.87, 44.62 18.54, 34.41 17.97 C24.19 17.4, 15.07 16.96, 9.18 15.57 C3.29 14.18, -1.33 11.69, -0.94 9.64 C-0.54 7.59, 4.75 4.9, 11.57 3.27 C18.38 1.64, 34.82 0.08, 39.93 -0.12 C45.04 -0.32, 41.79 1.63, 42.22 2.05" stroke="none" stroke-width="0" fill="#ffec99"></path><path d="M48.81 1.2 C59.42 0.9, 74.48 0.74, 85.44 1.14 C96.4 1.53, 107.63 2.14, 114.56 3.59 C121.5 5.03, 125.92 8.08, 127.05 9.81 C128.18 11.54, 126.54 12.51, 121.31 13.97 C116.09 15.42, 105.77 17.58, 95.72 18.56 C85.66 19.54, 72.47 20.08, 60.97 19.84 C49.47 19.59, 36.03 18.13, 26.73 17.1 C17.43 16.07, 9.5 15.25, 5.16 13.67 C0.82 12.09, -1.6 9.54, 0.67 7.62 C2.94 5.7, 8.19 3.47, 18.79 2.15 C29.39 0.82, 54.12 -0.2, 64.29 -0.33 C74.45 -0.46, 79.84 1.19, 79.79 1.36 M46.83 0.05 C57.22 -0.78, 70.75 -1.58, 81.85 -0.96 C92.94 -0.33, 105.77 2.02, 113.39 3.8 C121.01 5.58, 126.08 7.83, 127.58 9.72 C129.09 11.61, 127.25 13.84, 122.4 15.15 C117.55 16.46, 107.88 16.95, 98.48 17.57 C89.07 18.19, 77.64 18.72, 65.97 18.85 C54.3 18.99, 38.66 19.04, 28.48 18.38 C18.3 17.72, 9.61 16.62, 4.9 14.89 C0.19 13.17, -1.7 10.08, 0.23 8.03 C2.17 5.98, 9.12 3.81, 16.5 2.58 C23.88 1.34, 39.6 1.06, 44.5 0.62 C49.41 0.17, 45.44 -0.18, 45.94 -0.1" stroke="#1e1e1e" stroke-width="1" fill="none"></path></g><g stroke-linecap="round"><g transform="translate(172 80) rotate(0 -64 0)" fill-rule="evenodd"><path d="M0 0 L-3.86 3.42 L-17.96 6.95 L-35.94 8.99 L-61.77 9.99 L-87.97 9.27 L-106.82 7.43 L-122.47 4.07 L-126.6 2.08 L-128 0 L-124.14 -3.42 L-110.04 -6.95 L-92.06 -8.99 L-66.23 -9.99 L-40.03 -9.27 L-21.18 -7.43 L-7.49 -4.69 L-0.16 -0.7 L0 0" stroke="none" stroke-width="0" fill="#e03131" fill-rule="evenodd"></path><path d="M0 0 C-0.97 0.86, -1.94 1.72, -3.86 3.42 M0 0 C-0.88 0.78, -1.75 1.55, -3.86 3.42 M-3.86 3.42 C-8.96 4.7, -14.06 5.97, -17.96 6.95 M-3.86 3.42 C-8.78 4.65, -13.7 5.88, -17.96 6.95 M-17.96 6.95 C-22.08 7.41, -26.2 7.88, -35.94 8.99 M-17.96 6.95 C-24.8 7.72, -31.64 8.5, -35.94 8.99 M-35.94 8.99 C-44.41 9.32, -52.88 9.65, -61.77 9.99 M-35.94 8.99 C-45.39 9.36, -54.83 9.72, -61.77 9.99 M-61.77 9.99 C-68.3 9.81, -74.83 9.63, -87.97 9.27 M-61.77 9.99 C-69.02 9.79, -76.28 9.59, -87.97 9.27 M-87.97 9.27 C-93.85 8.7, -99.72 8.12, -106.82 7.43 M-87.97 9.27 C-91.77 8.9, -95.56 8.53, -106.82 7.43 M-106.82 7.43 C-112.69 6.17, -118.56 4.91, -122.47 4.07 M-106.82 7.43 C-111.96 6.33, -117.09 5.22, -122.47 4.07 M-122.47 4.07 C-123.51 3.56, -124.56 3.06, -126.6 2.08 M-122.47 4.07 C-123.86 3.4, -125.26 2.72, -126.6 2.08 M-126.6 2.08 C-127.06 1.4, -127.51 0.73, -128 0 M-126.6 2.08 C-127.14 1.27, -127.69 0.46, -128 0 M-128 0 C-126.65 -1.2, -125.3 -2.39, -124.14 -3.42 M-128 0 C-126.83 -1.03, -125.67 -2.07, -124.14 -3.42 M-124.14 -3.42 C-120.26 -4.39, -116.39 -5.36, -110.04 -6.95 M-124.14 -3.42 C-119.12 -4.68, -114.1 -5.93, -110.04 -6.95 M-110.04 -6.95 C-105.47 -7.46, -100.91 -7.98, -92.06 -8.99 M-110.04 -6.95 C-105.28 -7.49, -100.52 -8.03, -92.06 -8.99 M-92.06 -8.99 C-85.46 -9.24, -78.87 -9.5, -66.23 -9.99 M-92.06 -8.99 C-82.43 -9.36, -72.8 -9.74, -66.23 -9.99 M-66.23 -9.99 C-59 -9.79, -51.77 -9.6, -40.03 -9.27 M-66.23 -9.99 C-59.97 -9.82, -53.7 -9.65, -40.03 -9.27 M-40.03 -9.27 C-33.35 -8.62, -26.68 -7.97, -21.18 -7.43 M-40.03 -9.27 C-35.78 -8.86, -31.54 -8.44, -21.18 -7.43 M-21.18 -7.43 C-15.96 -6.39, -10.74 -5.34, -7.49 -4.69 M-21.18 -7.43 C-17.3 -6.66, -13.43 -5.88, -7.49 -4.69 M-7.49 -4.69 C-5.18 -3.44, -2.87 -2.18, -0.16 -0.7 M-7.49 -4.69 C-4.98 -3.33, -2.47 -1.96, -0.16 -0.7 M-0.16 -0.7 C-0.09 -0.42, -0.03 -0.15, 0 0 M-0.16 -0.7 C-0.11 -0.49, -0.06 -0.28, 0 0 M0 0 C0 0, 0 0, 0 0 M0 0 C0 0, 0 0, 0 0" stroke="transparent" stroke-width="1" fill="none"></path></g></g><mask></mask></svg>